<svg xmlns="http://www.w3.org/2000/svg" xmlns:xlink="http://www.w3.org/1999/xlink" width="200" zoomAndPan="magnify" viewBox="0 0 150 37.5" height="50" preserveAspectRatio="xMidYMid meet" version="1.0"><defs><clipPath id="id1"><path d="M 13.359375 0.191406 L 62 0.191406 L 62 23 L 13.359375 23 Z M 13.359375 0.191406 " clip-rule="nonzero"/></clipPath><clipPath id="id2"><path d="M 70 0.191406 L 105 0.191406 L 105 8 L 70 8 Z M 70 0.191406 " clip-rule="nonzero"/></clipPath><clipPath id="id3"><path d="M 95 27 L 136.960938 27 L 136.960938 33 L 95 33 Z M 95 27 " clip-rule="nonzero"/></clipPath><clipPath id="id4"><path d="M 114 33 L 129 33 L 129 37.007812 L 114 37.007812 Z M 114 33 " clip-rule="nonzero"/></clipPath></defs><g clip-path="url(#id1)"><path fill="#900A0A" d="M 58.492188 0.515625 C 59.382812 0.371094 60.277344 0.207031 61.183594 0.191406 C 58.574219 0.597656 55.992188 1.234375 53.527344 2.191406 C 51.253906 3.070312 49.109375 4.273438 47.167969 5.753906 C 45.363281 7.109375 43.75 8.6875 42.035156 10.148438 C 40.105469 11.757812 37.996094 13.136719 35.8125 14.375 C 31.136719 17.007812 26.136719 19.019531 21.050781 20.695312 C 18.855469 21.40625 16.644531 22.066406 14.410156 22.636719 C 14.078125 22.710938 13.753906 22.824219 13.414062 22.847656 C 14.691406 22.535156 15.945312 22.132812 17.203125 21.761719 C 22.535156 20.117188 27.78125 18.136719 32.730469 15.550781 C 36.226562 13.714844 39.578125 11.566406 42.519531 8.914062 C 43.21875 8.304688 43.847656 7.625 44.558594 7.023438 C 48.484375 3.613281 53.398438 1.441406 58.492188 0.515625 Z M 58.492188 0.515625 " fill-opacity="1" fill-rule="nonzero"/></g><g clip-path="url(#id2)"><path fill="#900A0A" d="M 70.859375 0.933594 C 76.515625 0.5625 82.191406 1 87.792969 1.796875 C 89.253906 1.90625 90.625 2.472656 92 2.929688 C 96.320312 4.417969 100.597656 6.050781 104.738281 7.980469 C 101.199219 7.664062 97.644531 7.558594 94.09375 7.550781 C 89.847656 7.53125 85.605469 7.65625 81.363281 7.863281 C 80.355469 7.921875 79.332031 7.953125 78.335938 7.765625 C 77.542969 7.621094 76.761719 7.316406 76.140625 6.789062 C 74.453125 5.273438 72.851562 3.652344 71.027344 2.296875 C 70.714844 2.046875 70.320312 1.875 70.09375 1.53125 C 70.007812 1.414062 69.992188 1.226562 70.125 1.140625 C 70.335938 0.984375 70.609375 0.964844 70.859375 0.933594 Z M 70.859375 0.933594 " fill-opacity="1" fill-rule="nonzero"/></g><path fill="#900A0A" d="M 61.808594 1.964844 C 63.25 1.816406 64.730469 1.886719 66.128906 2.300781 C 67.984375 2.832031 69.664062 3.90625 71.027344 5.265625 C 72.171875 6.402344 73.105469 7.734375 73.882812 9.144531 C 68.296875 9.371094 62.707031 9.578125 57.121094 9.808594 C 56.351562 8.132812 55.363281 6.539062 54.054688 5.234375 C 53.839844 5.007812 53.542969 4.824219 53.445312 4.511719 C 53.429688 4.261719 53.703125 4.15625 53.882812 4.066406 C 54.828125 3.667969 55.800781 3.335938 56.777344 3.035156 C 58.417969 2.535156 60.097656 2.132812 61.808594 1.964844 Z M 61.808594 1.964844 " fill-opacity="1" fill-rule="nonzero"/><path fill="#900A0A" d="M 50.871094 5.464844 C 51.242188 5.28125 51.601562 5.027344 52.023438 5.007812 C 52.347656 5.042969 52.597656 5.285156 52.84375 5.480469 C 53.5625 6.128906 54.121094 6.929688 54.648438 7.734375 C 54.945312 8.191406 55.222656 8.65625 55.484375 9.136719 C 55.570312 9.3125 55.671875 9.523438 55.585938 9.71875 C 55.453125 9.917969 55.1875 9.894531 54.980469 9.902344 C 53.449219 9.878906 51.917969 9.90625 50.386719 9.953125 C 48.921875 10.019531 47.449219 10.097656 46 10.335938 C 45.472656 10.425781 44.9375 10.527344 44.449219 10.75 C 45.566406 8.835938 47.308594 7.367188 49.222656 6.304688 C 49.757812 5.996094 50.320312 5.738281 50.871094 5.464844 Z M 50.871094 5.464844 " fill-opacity="1" fill-rule="nonzero"/><path fill="#900A0A" d="M 86.414062 8.816406 C 89.761719 8.734375 93.109375 8.648438 96.453125 8.492188 C 100.0625 8.367188 103.683594 8.417969 107.28125 8.753906 C 110.390625 9.027344 113.5 9.359375 116.59375 9.769531 C 118.226562 9.988281 119.859375 10.226562 121.476562 10.550781 C 123.871094 11.019531 126.292969 11.492188 128.539062 12.480469 C 129.214844 12.78125 129.875 13.121094 130.5 13.515625 C 129.226562 13.023438 127.917969 12.601562 126.574219 12.34375 C 126.003906 12.226562 125.421875 12.171875 124.851562 12.058594 C 124.203125 12.003906 123.550781 12.0625 122.902344 12.054688 C 120.882812 12.070312 118.859375 12.132812 116.859375 12.410156 C 116.597656 12.449219 116.292969 12.496094 116.132812 12.730469 C 115.988281 12.960938 116.097656 13.242188 116.199219 13.464844 C 116.894531 14.691406 117.515625 15.957031 118.160156 17.210938 C 118.601562 18.09375 119.0625 18.96875 119.488281 19.859375 C 117.734375 17.058594 115.320312 14.683594 112.515625 12.945312 C 112.039062 12.648438 111.546875 12.367188 111.039062 12.128906 C 110.347656 11.808594 109.601562 11.632812 108.851562 11.515625 C 107.410156 11.328125 105.988281 11.019531 104.554688 10.78125 C 97.71875 9.59375 90.789062 8.898438 83.847656 8.886719 C 84.703125 8.828125 85.558594 8.839844 86.414062 8.816406 Z M 86.414062 8.816406 " fill-opacity="1" fill-rule="nonzero"/><path fill="#900A0A" d="M 103.476562 12.617188 C 104.558594 12.84375 105.648438 13.242188 106.480469 13.996094 C 106.964844 14.425781 107.320312 15 107.472656 15.628906 C 107.574219 16.042969 107.519531 16.507812 107.265625 16.855469 C 106.957031 17.28125 106.464844 17.527344 105.976562 17.6875 C 106.425781 17.347656 106.886719 16.957031 107.074219 16.40625 C 107.253906 15.890625 107.085938 15.320312 106.769531 14.898438 C 106.277344 14.222656 105.578125 13.738281 104.871094 13.316406 C 104.421875 13.050781 103.957031 12.820312 103.476562 12.617188 Z M 103.476562 12.617188 " fill-opacity="1" fill-rule="nonzero"/><path fill="#900A0A" d="M 124.292969 12.613281 C 124.59375 12.578125 124.898438 12.5625 125.199219 12.59375 C 126.628906 12.882812 128.074219 13.132812 129.460938 13.589844 C 129.867188 13.722656 130.273438 13.886719 130.605469 14.164062 C 131.046875 14.515625 131.332031 15.023438 131.511719 15.550781 C 131.835938 16.496094 132.171875 17.4375 132.402344 18.40625 C 132.496094 18.824219 132.601562 19.285156 132.386719 19.679688 C 132.261719 19.9375 131.96875 20.0625 131.695312 20.042969 C 128.96875 19.835938 126.230469 19.726562 123.496094 19.683594 C 122.792969 19.65625 122.070312 19.75 121.394531 19.515625 C 120.636719 19.253906 120.082031 18.625 119.636719 17.984375 C 118.902344 16.917969 118.25 15.796875 117.644531 14.65625 C 117.457031 14.273438 117.28125 13.828125 117.390625 13.394531 C 117.476562 13.078125 117.816406 12.9375 118.117188 12.917969 C 120.167969 12.714844 122.234375 12.714844 124.292969 12.613281 Z M 124.292969 12.613281 " fill-opacity="1" fill-rule="nonzero"/><path fill="#900A0A" d="M 101.78125 12.683594 C 102.851562 12.597656 103.863281 13.085938 104.757812 13.617188 C 105.328125 13.96875 105.882812 14.378906 106.269531 14.933594 C 106.582031 15.386719 106.746094 15.960938 106.640625 16.507812 C 106.496094 17 106.046875 17.339844 105.570312 17.484375 C 104.960938 17.664062 104.308594 17.636719 103.6875 17.519531 C 102.226562 17.234375 100.960938 16.171875 100.371094 14.808594 C 100.183594 14.402344 100.15625 13.886719 100.453125 13.523438 C 100.785156 13.113281 101.234375 12.734375 101.78125 12.683594 Z M 101.78125 12.683594 " fill-opacity="1" fill-rule="nonzero"/><path fill="#900A0A" d="M 108.757812 12.714844 C 109.816406 12.53125 110.875 12.949219 111.734375 13.542969 C 112.285156 13.921875 112.773438 14.382812 113.222656 14.871094 C 113.632812 15.296875 113.898438 15.851562 114.042969 16.421875 C 114.144531 16.878906 114.148438 17.414062 113.847656 17.800781 C 113.496094 18.25 112.882812 18.394531 112.335938 18.382812 C 110.875 18.242188 109.484375 17.449219 108.621094 16.253906 C 108.308594 15.828125 108.054688 15.355469 107.863281 14.859375 C 107.707031 14.402344 107.667969 13.886719 107.859375 13.4375 C 108.015625 13.066406 108.363281 12.785156 108.757812 12.714844 Z M 108.757812 12.714844 " fill-opacity="1" fill-rule="nonzero"/><path fill="#900A0A" d="M 111.214844 12.875 C 112.144531 13.378906 113.078125 13.914062 113.875 14.617188 C 114.28125 14.984375 114.667969 15.394531 114.878906 15.90625 C 115.042969 16.289062 115.0625 16.746094 114.875 17.121094 C 114.730469 17.429688 114.472656 17.664062 114.210938 17.871094 C 114.484375 17.371094 114.550781 16.761719 114.367188 16.21875 C 114.089844 15.351562 113.453125 14.660156 112.792969 14.058594 C 112.304688 13.613281 111.753906 13.25 111.214844 12.875 Z M 111.214844 12.875 " fill-opacity="1" fill-rule="nonzero"/><path fill="#900A0A" d="M 131.785156 14.859375 C 131.8125 14.84375 131.867188 14.816406 131.890625 14.800781 C 132.152344 14.859375 132.351562 15.054688 132.539062 15.230469 C 133.078125 15.808594 133.453125 16.515625 133.773438 17.234375 C 133.984375 17.734375 134.21875 18.234375 134.292969 18.78125 C 134.316406 19.011719 134.335938 19.289062 134.164062 19.472656 C 134.058594 19.542969 133.9375 19.457031 133.859375 19.386719 C 133.15625 18.691406 132.804688 17.738281 132.359375 16.875 C 132.128906 16.375 131.875 15.871094 131.742188 15.332031 C 131.71875 15.179688 131.675781 14.988281 131.785156 14.859375 Z M 131.785156 14.859375 " fill-opacity="1" fill-rule="nonzero"/><path fill="#900A0A" d="M 84.617188 16.574219 C 85.800781 16.359375 87.050781 16.371094 88.183594 16.8125 C 89.175781 17.1875 90.035156 17.871094 90.699219 18.695312 C 91.523438 19.722656 92.074219 20.949219 92.441406 22.214844 C 92.832031 23.597656 93.023438 25.042969 93.003906 26.484375 C 92.929688 27.765625 92.761719 29.050781 92.421875 30.289062 C 92.101562 31.457031 91.625 32.59375 90.890625 33.558594 C 90.25 34.414062 89.394531 35.117188 88.40625 35.53125 C 87.285156 36.007812 86.03125 36.121094 84.832031 35.964844 C 85.875 35.863281 86.910156 35.523438 87.757812 34.886719 C 88.714844 34.175781 89.40625 33.15625 89.878906 32.070312 C 90.492188 30.660156 90.796875 29.132812 90.976562 27.609375 C 91.167969 26.128906 91.140625 24.621094 90.957031 23.140625 C 90.792969 21.917969 90.496094 20.699219 89.929688 19.597656 C 89.441406 18.652344 88.726562 17.804688 87.804688 17.265625 C 86.851562 16.695312 85.714844 16.503906 84.617188 16.574219 Z M 84.617188 16.574219 " fill-opacity="1" fill-rule="nonzero"/><path fill="#900A0A" d="M 45.070312 19.871094 C 45.621094 20.816406 46.210938 21.75 46.980469 22.53125 C 47.433594 22.976562 47.953125 23.359375 48.550781 23.589844 C 49.175781 23.835938 49.851562 23.898438 50.515625 23.945312 C 58.5625 24.4375 66.613281 24.894531 74.664062 25.367188 C 75.152344 25.414062 75.648438 25.386719 76.132812 25.472656 C 72.316406 25.390625 68.503906 25.351562 64.6875 25.285156 C 59.789062 25.214844 54.890625 25.128906 49.992188 25.058594 C 49.359375 25.03125 48.714844 25.09375 48.089844 24.957031 C 47.152344 24.746094 46.421875 23.964844 46.132812 23.070312 C 45.785156 22 45.402344 20.945312 45.070312 19.871094 Z M 45.070312 19.871094 " fill-opacity="1" fill-rule="nonzero"/><path fill="#900A0A" d="M 50.84375 26.554688 C 51.128906 26.523438 51.410156 26.453125 51.695312 26.457031 C 57.011719 26.667969 62.328125 26.859375 67.644531 27.015625 C 69.570312 27.066406 71.496094 27.128906 73.425781 27.136719 C 73.640625 27.140625 73.855469 27.160156 74.066406 27.1875 C 73.304688 27.167969 72.542969 27.253906 71.78125 27.261719 C 66.949219 27.460938 62.109375 27.472656 57.277344 27.453125 C 53.464844 27.433594 49.65625 27.367188 45.847656 27.277344 C 47.511719 27.023438 49.179688 26.796875 50.84375 26.554688 Z M 50.84375 26.554688 " fill-opacity="1" fill-rule="nonzero"/><g clip-path="url(#id3)"><path fill="#900A0A" d="M 95.523438 27.144531 C 95.566406 27.027344 95.695312 27.046875 95.792969 27.046875 C 98.644531 27.183594 101.5 27.308594 104.355469 27.242188 C 104.800781 28.125 105.566406 28.847656 106.5 29.191406 C 107.101562 29.421875 107.753906 29.515625 108.398438 29.484375 C 113.550781 29.8125 118.714844 30.082031 123.882812 30.007812 C 125.722656 29.9375 127.5625 29.828125 129.394531 29.660156 C 130.820312 29.519531 132.246094 29.347656 133.648438 29.050781 C 134.25 28.917969 134.855469 28.769531 135.429688 28.53125 C 135.726562 28.398438 136.039062 28.25 136.21875 27.964844 C 136.511719 28.347656 136.644531 28.816406 136.78125 29.273438 C 136.90625 29.703125 136.820312 30.195312 136.527344 30.535156 C 136.101562 31.035156 135.46875 31.289062 134.863281 31.496094 C 133.59375 31.898438 132.269531 32.074219 130.957031 32.230469 C 127.542969 32.589844 124.105469 32.691406 120.675781 32.808594 C 113.582031 33.039062 106.476562 32.828125 99.40625 32.230469 C 98.265625 32.125 97.128906 32.019531 95.992188 31.886719 C 95.902344 31.859375 95.757812 31.875 95.742188 31.753906 C 95.746094 30.214844 95.664062 28.675781 95.523438 27.144531 Z M 95.523438 27.144531 " fill-opacity="1" fill-rule="nonzero"/></g><path fill="#900A0A" d="M 90.546875 34.839844 C 92.472656 33.179688 93.457031 30.625 93.566406 28.121094 C 93.734375 28.8125 93.726562 29.53125 93.773438 30.238281 C 93.796875 31.179688 93.828125 32.121094 93.773438 33.0625 C 93.8125 33.257812 94.054688 33.308594 94.222656 33.347656 C 95.039062 33.472656 95.871094 33.460938 96.695312 33.523438 C 96.460938 33.914062 96.113281 34.210938 95.796875 34.527344 C 95.308594 35 94.796875 35.449219 94.273438 35.878906 C 93.671875 36.371094 92.851562 36.335938 92.121094 36.429688 C 90.558594 36.539062 88.984375 36.660156 87.417969 36.511719 C 88.5625 36.179688 89.644531 35.625 90.546875 34.839844 Z M 90.546875 34.839844 " fill-opacity="1" fill-rule="nonzero"/><path fill="#900A0A" d="M 33.511719 29.410156 C 34.960938 29.523438 36.402344 29.710938 37.851562 29.84375 C 44.539062 30.519531 51.234375 31.167969 57.933594 31.75 C 62.414062 32.136719 66.894531 32.507812 71.386719 32.765625 C 72.488281 32.808594 73.589844 32.894531 74.691406 32.902344 C 72.910156 32.929688 71.132812 32.878906 69.351562 32.867188 C 64.84375 32.828125 60.339844 32.792969 55.832031 32.773438 C 55.507812 32.765625 55.1875 32.785156 54.863281 32.761719 C 47.746094 31.648438 40.632812 30.515625 33.511719 29.410156 Z M 33.511719 29.410156 " fill-opacity="1" fill-rule="nonzero"/><g clip-path="url(#id4)"><path fill="#900A0A" d="M 124.542969 33.882812 C 125.9375 33.84375 127.328125 33.78125 128.71875 33.664062 C 128.480469 34.101562 128.074219 34.410156 127.699219 34.722656 C 125.972656 36.074219 123.855469 36.988281 121.65625 37.117188 C 120.25 37.195312 118.828125 36.917969 117.558594 36.316406 C 116.328125 35.742188 115.242188 34.898438 114.304688 33.921875 C 117.71875 33.964844 121.128906 33.972656 124.542969 33.882812 Z M 124.542969 33.882812 " fill-opacity="1" fill-rule="nonzero"/></g></svg>